<?xml version="1.0" encoding="UTF-8"?><svg id="Layer_2" xmlns="http://www.w3.org/2000/svg" viewBox="0 0 487.05 465.75"><g id="Layer_1-2"><path d="m243.66,465.75c-27.11-55.8-59.69-106.23-97.29-153.75h194.46c-37.31,47.59-70.3,97.77-97.17,153.75Z" fill="#ed1c24"/><path d="m333.68,153.66h-180.08C190.21,107.23,219.84,56.16,243.65,0c23.66,56.18,53.46,107.12,90.03,153.66Z" fill="#ed1c24"/><path d="m487.05,193.33v13.41c-1.01.28-1.93.57-2.87.78q-4.91,1.08-4.91,6.57c0,18.98-.26,37.97.08,56.95.31,17.54-12.71,30.9-25.94,30.65-5.79-.11-11.58-.02-17.77-.02,0-5.12-.1-9.93.12-14.72.03-.66,1.61-1.72,2.5-1.76,4.17-.19,8.36-.37,12.52-.03,8.55.7,14.18-5.58,12.05-17.61-3.07,0-6.23.01-9.38,0-14.87-.06-25.31-11.72-25.42-28.46-.05-8.19-.06-16.38,0-24.57.09-12.26,7.11-20.84,17.92-21.11,13.59-.34,27.19-.08,41.1-.08Zm-23.93,16.65c-5.23,0-10.14-.08-15.05.03-2.41.06-3.97,1.66-3.98,4.43-.06,9.41-.11,18.82.12,28.22.09,3.85,3.05,7.58,6.38,7.95,4.08.45,8.23.11,12.53.11v-40.73Z" fill="#fff"/><path d="m355.91,254.48c.26-.25.33-.38.42-.4,2.33-.62,5.76-.41,6.71-2.04,1.23-2.12.56-5.7.57-8.65.03-11.53.01-23.05.01-34.81-2.61-.6-5.04-1.17-7.69-1.78v-13.44c6.36,0,12.69-.19,18.99.17,1.18.07,2.25,2.37,3.49,3.78,7.18-4.97,15.02-5.11,22.83-2.95,8.56,2.36,13.83,10.6,13.86,20.54.04,11.29.08,22.58-.04,33.87-.03,2.82.38,4.49,3.28,4.44,1.39-.02,2.79.57,4.43.94v13.11h-31.3v-12.84c.24-.2.4-.42.58-.46q6.96-1.46,6.97-9.52c0-9.06.02-18.11,0-27.17-.02-5.47-1.66-7.27-6.57-7.29-.99,0-1.98-.02-2.97.02-5.83.25-9.74,4.42-9.85,11.03-.16,9.67,0,19.35-.08,29.03-.02,2.09.67,2.85,2.43,3.02,1.73.17,3.43.64,5.32,1.01v13.21h-31.36v-12.82Z" fill="#fff"/><path d="m278.48,254.15v13.14h-31.42v-13.17c2.49-.54,4.93-1.06,7.52-1.62v-43.9c-2.4-.57-4.92-1.17-7.56-1.8v-13.48c6.24,0,12.35-.21,18.44.16,1.36.08,2.62,2.21,4.23,3.68,6.68-4.7,14.4-4.95,22.13-2.92,8.95,2.36,14.32,10.52,14.36,20.85.04,11.29.07,22.58-.03,33.86-.02,2.66.44,3.97,3.13,4.27,4.84.55,4.82.79,4.82,6.29,0,2.46,0,4.92,0,7.71h-31.57v-12.79c.23-.2.38-.44.56-.48q7.12-1.6,7.12-9.77c0-7.94-.18-15.88.04-23.81.31-11.12-3.25-11.42-12.16-9.89-4.81.82-7.31,5.1-7.35,10.78-.06,9.43.04,18.86-.06,28.28-.02,2.29.5,3.44,2.66,3.57,1.62.1,3.22.63,5.13,1.04Z" fill="#fff"/><path d="m143.33,218.68h-11.8v-25.41c4.53,0,8.88,0,13.24,0,4.17,0,8.35-.04,12.52,0,12.59.15,20.27,8.81,20.34,23.02.06,10.91.09,21.83-.03,32.74-.03,2.79.7,3.72,3.23,4.21,5.39,1.04,4.67-.36,4.72,6.36.06,7.95.02,7.95-7.11,7.95-10.98,0-21.96.02-32.94,0-10.95-.03-17.74-6.08-19.16-17.01-1.49-11.54,4.02-21.66,13.89-24.99,5.87-1.98,11.83-3.67,17.81-5.15,2.65-.66,3.69-1.86,3.34-4.94-.35-3.09-1.41-5.29-4.35-5.44-3.4-.17-6.82-.22-10.2.06-.9.07-2.12,1.36-2.46,2.4-.63,1.91-.71,4.05-1.03,6.19Zm17.83,17.26c-5.43,1.47-10.64,2.77-15.79,4.33-2.25.68-3.76,2.82-3.06,5.34.54,1.94,2.17,4.77,3.52,4.93,5.05.59,10.18.23,15.33.23v-14.84Z" fill="#fff"/><path d="m.34,267.34v-12.99c2.6-.78,6.12-.69,7.1-2.42,1.26-2.24.58-5.94.59-9.02.03-19.84.02-39.68.02-59.52,0-1.35,0-2.71,0-4.29-1.26-.37-2.4-1.02-3.52-.98-3.82.11-4.86-2.02-4.44-5.99.28-2.65.05-5.37.05-8.25h31.76c0,3.94.12,7.86-.1,11.76-.04.75-1.32,1.75-2.18,2.05-1.74.6-3.58.79-5.44,1.16v72.17c4.28,0,8.41,0,12.53,0,3.73,0,7.47-.14,11.2.05,2.51.12,3.98-.5,3.95-3.75-.01-1.57.51-3.14.88-5.21,3.35,0,6.72-.08,10.09.08.59.03,1.64,1.05,1.65,1.63.11,7.77.07,15.54.07,23.53H.34Z" fill="#fff"/><path d="m86.06,241.75c.37,5.66,2.93,8.9,7.58,9.07,6.8.25,13.61.14,20.42.18,1.3,0,2.6,0,4.16,0v16.56c-3.94,0-7.85,0-11.76,0-3.62,0-7.25,0-10.87,0-13.35-.03-23.96-9.24-25.44-24.09-1.09-10.98-.73-22.3.18-33.35.79-9.68,8.1-16.2,16.79-16.65,5.15-.27,10.32-.25,15.47,0,9.86.49,16.63,7.19,18.31,17.77,1.61,10.13-3.04,19.97-12.17,23.64-6.98,2.81-14.36,4.34-21.57,6.45-.31.09-.6.23-1.1.42Zm-.36-17.34c5.9-1.75,11.33-3.07,16.53-5.12,1.32-.52,2.6-3.35,2.67-5.18.09-2.52-1.69-4.14-4.17-4.14-3.5,0-7-.01-10.5,0-2.78,0-4.3,1.76-4.49,4.73-.19,2.93-.04,5.9-.04,9.69Z" fill="#fff"/><path d="m222.17,267.38h-31.93c0-3.97-.16-7.79.13-11.56.06-.82,1.65-1.87,2.68-2.14,5.07-1.33,5.09-1.25,5.09-7.21,0-12.51,0-25.03,0-37.88-2.6-.63-5.1-1.24-7.71-1.87v-13.42c6.41,0,12.65-.21,18.85.17,1.31.08,2.52,2.34,3.91,3.73,8.69-6.46,18.6-2.93,28.33-4.14v25.64h-11.56c-.51-2.71-1.05-5.54-1.66-8.72-1.32,0-2.62-.03-3.92,0-6.3.14-9.92,4.01-10.07,11.4-.2,9.54,0,19.09-.09,28.64-.02,2.38,1.06,2.73,2.79,3.1,6.22,1.33,5-.23,5.15,6.64.06,2.44,0,4.89,0,7.61Z" fill="#fff"/><path d="m350.55,254.16v13.07h-31.59c0-3.92-.13-7.85.12-11.75.05-.7,1.64-1.59,2.64-1.85,5.09-1.34,5.1-1.28,5.1-7.23,0-11.41-.08-22.82.06-34.22.04-2.92-.67-4.18-3.36-4.47-4.62-.51-4.61-.68-4.61-6.1q0-8.34,7.43-8.33c5.35,0,10.7,0,16.46,0,0,1.87,0,3.31,0,4.76,0,16.49.1,32.99-.07,49.48-.04,3.69.42,6,4.22,5.84,1.06-.04,2.14.46,3.59.81Z" fill="#fff"/><path d="m327,181.45v-17.47h15.55v17.47h-15.55Z" fill="#fff"/></g></svg>